<svg width="98" height="36" viewBox="0 0 98 36" fill="none" xmlns="http://www.w3.org/2000/svg">
<g clip-path="url(#clip0_343_1794)">
<path d="M36.3874 11.9209H25.0103V9.02967H36.3874V5.80402H25.0103V3.20408H36.3874V0H20.9708V15.1465H36.3874V11.9209Z" fill="white"/>
<path d="M85.3982 5.98741L94.9597 15.1465H98V0H93.9713V9.15912L84.4098 0H81.3694V15.1465H85.3982V5.98741Z" fill="white"/>
<path d="M77.0289 -0.00012207H60.3984V15.1033H77.0289V-0.00012207ZM73.0002 11.9316H64.4056V3.20419H73.0002V11.9316Z" fill="white"/>
<path d="M4.02872 5.98741L13.5902 15.1465H16.6306V0H12.6018V9.15912L3.04034 0H0V15.1465H4.02872V5.98741Z" fill="white"/>
<path d="M48.3984 10.4645L52.5345 15.1465H57.6268L50.9553 7.58406L57.6376 0H52.5345L48.3984 4.69284L44.2622 0H39.1592L45.8522 7.58406L39.1699 15.1465H44.273L48.3984 10.4645Z" fill="white"/>
<path d="M9 30.4622C9 32.4044 7.71556 34 4.50475 34C1.29394 34 0 32.4044 0 30.4622V25.5289C0 23.5867 1.29394 22 4.50475 22C7.71556 22 9 23.5867 9 25.5289V30.4622ZM1.60531 30.4622C1.60531 31.8937 2.57828 32.6959 4.52423 32.6959C6.47018 32.6959 7.44315 31.8937 7.44315 30.4622V25.5926C7.44315 24.161 6.47018 23.3589 4.52423 23.3589C2.57828 23.3589 1.60531 24.161 1.60531 25.5926V30.4622Z" fill="white" fill-opacity="0.8"/>
<path d="M16.0168 22H19.8981C22.1951 22 23 23.1173 23 24.9577V26.7417C23 28.6196 22.1615 29.709 19.8981 29.709H17.3831V34H16L16.0168 22ZM19.8477 23.3897H17.3999V28.3193H19.8477C21.1639 28.3193 21.6165 27.906 21.6165 26.7417V24.9765C21.6165 23.8122 21.1639 23.4176 19.8477 23.4176V23.3897Z" fill="white" fill-opacity="0.8"/>
<path d="M30 22H36.9814V23.3853H31.5317V27.1295H36.5916V28.5524H31.5317V32.6147H37V34H30V22Z" fill="white" fill-opacity="0.8"/>
<path d="M45.336 23.8081V34H44V22H45.932L50.6635 32.2481V22H52V33.9716H50.0764L45.336 23.8081Z" fill="white" fill-opacity="0.8"/>
<path d="M76 34H74.4566L73.4769 31.1176H68.4581L67.5339 34H66L69.983 22H72.044L76 34ZM70.9813 23.1178L68.8648 29.7651H73.0888L70.9813 23.1178Z" fill="white" fill-opacity="0.8"/>
<path d="M82 22H86.4634C89.0823 22 90 23.1173 90 24.9577V26.7417C90 28.6196 89.044 29.709 86.4634 29.709H83.5961V34H82.0191L82 22ZM86.3678 23.3897H83.5961V28.3193H86.3869C87.8875 28.3193 88.4035 27.906 88.4035 26.7417V24.9765C88.3748 23.8122 87.8683 23.4176 86.3678 23.4176V23.3897Z" fill="white" fill-opacity="0.8"/>
<path d="M98 34H96V22H98V34Z" fill="white" fill-opacity="0.8"/>
</g>
<defs>
<clipPath id="clip0_343_1794">
<rect width="98" height="36" fill="white"/>
</clipPath>
</defs>
</svg>
